<svg width="84" height="72" viewBox="0 0 84 72" fill="none" xmlns="http://www.w3.org/2000/svg">
<mask id="path-1-outside-1_10_1109" maskUnits="userSpaceOnUse" x="-0.00195312" y="0" width="84" height="72" fill="black">
<rect fill="white" x="-0.00195312" width="84" height="72"/>
<path d="M82.9989 7.82165V64.1784C82.9561 64.2802 82.8919 64.3753 82.8705 64.4816C82.0468 68.533 79.2183 70.9728 75.3008 70.9977C73.8866 71.0068 72.4723 70.9977 71.056 70.9977C50.3174 70.9977 29.5789 71 8.83816 70.9977C4.26596 70.9977 1.00744 67.6661 1.00317 62.9471C0.994607 44.9786 0.994607 27.0146 1.02028 9.05063C1.02028 8.13399 1.17005 7.18113 1.44177 6.31202C2.48587 2.97135 5.27369 1 8.84244 1C30.9417 1 53.0432 1 75.1425 1C75.3564 1 75.5704 1 75.7822 1.00905C78.7326 1.16975 80.8872 2.66354 82.2158 5.43611C82.571 6.17848 82.7421 7.02044 82.9967 7.81712L82.9989 7.82165ZM15.6398 67.562C15.6398 64.1919 15.6398 60.9124 15.6398 57.6328C15.6398 55.0594 15.6226 52.4838 15.6462 49.9104C15.6697 47.3958 17.161 45.8409 19.5145 45.8341C21.2496 45.8296 22.9848 45.8319 24.7178 45.8341C27.2874 45.8364 28.723 47.3574 28.7252 50.0914C28.7295 55.58 28.7252 61.0663 28.7252 66.5548C28.7252 66.883 28.7252 67.2112 28.7252 67.5575H33.5199C33.5199 67.2067 33.5199 66.9034 33.5199 66.6001C33.5199 63.7144 33.5156 60.8286 33.5242 57.9452C33.5242 57.5242 33.552 57.0964 33.6162 56.6822C33.8365 55.2496 34.6795 54.2673 35.8028 53.4955C34.4313 50.0009 33.0813 46.5607 31.7312 43.1227C30.4967 39.9789 30.9268 37.9125 33.2332 35.5632C36.1087 32.6344 38.8152 29.5586 40.5996 25.7087C40.8799 25.1044 41.3592 24.7807 42.0139 24.7807C42.7006 24.7807 43.1564 25.1315 43.4859 25.7539C44.0357 26.786 44.4979 27.9064 45.2061 28.8004C47.1402 31.2425 49.1364 33.6371 51.1989 35.9593C52.8956 37.8695 53.4197 40.1374 52.4912 42.5795C52.0141 43.8356 51.5134 45.085 51.0256 46.3366C50.0949 48.7335 49.1663 51.1303 48.2249 53.5498C49.9708 54.6498 50.5314 56.2929 50.4907 58.3164C50.4329 61.0867 50.4757 63.8592 50.4757 66.6318V67.5371H54.9624C54.9624 67.1614 54.9624 66.8536 54.9624 66.5435C54.9624 62.4695 54.9196 58.3956 54.9966 54.3239C55.0137 53.4774 55.279 52.4634 55.7797 51.841C56.3873 51.085 56.5178 50.3653 56.49 49.4758C56.4365 47.6901 57.1746 46.3932 58.6723 45.5535C58.8863 45.4335 59.0938 45.0714 59.1045 44.8134C59.1516 43.684 59.1152 42.5523 59.128 41.4207C59.1409 40.2981 59.7571 39.5783 60.6899 39.5602C61.6506 39.5421 62.3074 40.2845 62.3245 41.441C62.3416 42.5433 62.3502 43.6478 62.3181 44.75C62.3053 45.2095 62.4358 45.4471 62.8423 45.6418C63.8714 46.1352 64.5753 46.9952 64.8107 48.1631C64.9583 48.8987 64.8834 49.6818 64.9519 50.44C64.9775 50.7229 65.0524 51.0783 65.2321 51.2525C66.1714 52.1624 66.5052 53.2827 66.4988 54.5977C66.4774 58.6151 66.4923 62.6302 66.4923 66.6476C66.4923 66.9487 66.4923 67.2474 66.4923 67.6073C69.4513 67.6073 72.3012 67.6118 75.1532 67.6073C78.0608 67.6028 79.7938 65.7763 79.7938 62.7117C79.796 50.0394 79.7938 37.3671 79.7938 24.6925C79.7938 24.3937 79.7938 24.0972 79.7938 23.8007H4.20392C4.20392 24.1447 4.20392 24.448 4.20392 24.7513C4.20392 37.3671 4.20392 49.9828 4.20392 62.6008C4.20392 62.8837 4.1975 63.1667 4.21675 63.4496C4.35154 65.4956 5.88987 67.424 7.78337 67.5281C10.3594 67.6707 12.9461 67.5643 15.6398 67.5643V67.562ZM4.21461 20.2948H79.7832C79.7832 16.3272 79.7832 12.423 79.781 8.52102C79.781 8.38069 79.7532 8.24037 79.7275 8.1023C79.2953 5.76882 77.6094 4.39498 75.1489 4.39498C53.0475 4.39498 30.9482 4.39498 8.84672 4.39498C8.63276 4.39498 8.41881 4.39498 8.20699 4.4063C6.11666 4.50815 4.28094 6.3007 4.23601 8.52328C4.15899 12.423 4.21461 16.3272 4.21461 20.2971V20.2948ZM40.3985 52.9478C40.3985 50.2069 40.3921 47.4954 40.4028 44.7862C40.4071 43.6206 41.0532 42.8986 42.031 42.9167C42.9724 42.9326 43.5886 43.641 43.5971 44.7681C43.61 46.8028 43.6014 48.8398 43.6014 50.8746C43.6014 51.5739 43.6014 52.2755 43.6014 53.0949C44.2005 52.8957 44.8338 53.4095 45.174 52.52C46.6139 48.7538 48.0902 45.0012 49.545 41.2419C49.9665 40.1532 49.7526 39.2026 48.9481 38.3901C48.272 37.7065 47.5724 37.0457 46.9562 36.3056C45.2681 34.2776 43.6207 32.2135 41.9368 30.1403C41.9283 30.1516 41.832 30.2421 41.7614 30.353C39.8957 33.2704 37.6449 35.8303 35.2315 38.2407C34.1724 39.2977 34.0098 40.0876 34.564 41.5021C35.944 45.0216 37.3625 48.523 38.6869 52.0651C39.0292 52.9794 39.4806 53.2442 40.4006 52.9523L40.3985 52.9478ZM47.2771 67.5779V66.745C47.2771 63.8343 47.2771 60.926 47.2771 58.0153C47.2771 56.7501 47.0033 56.4469 45.8308 56.4446C43.2719 56.4378 40.713 56.4378 38.1541 56.4446C37.0138 56.4469 36.7249 56.7547 36.7228 57.9452C36.7185 60.9124 36.7206 63.8773 36.7228 66.8446C36.7228 67.0867 36.7527 67.3266 36.7698 67.5801H47.275L47.2771 67.5779ZM25.5223 67.5665C25.5223 66.5684 25.5223 65.6676 25.5223 64.7646C25.5223 59.9029 25.5223 55.0391 25.5223 50.1775C25.5223 49.6773 25.5629 49.2065 24.8569 49.2155C23.0704 49.2404 21.2817 49.2042 19.4973 49.2495C19.277 49.254 18.909 49.5731 18.879 49.7859C18.7956 50.4128 18.8491 51.0601 18.8491 51.755C19.6065 51.755 20.244 51.7459 20.8816 51.755C21.992 51.7731 22.7109 52.4272 22.7238 53.4163C22.7387 54.437 21.9963 55.1251 20.8474 55.1432C20.212 55.1522 19.5765 55.1432 18.9111 55.1432V57.2368C19.6728 57.2368 20.3639 57.2119 21.0549 57.2435C22.037 57.2865 22.7152 57.9927 22.7238 58.9297C22.7323 59.8962 22.0241 60.6 20.9972 60.6249C20.3125 60.6408 19.6257 60.6272 18.909 60.6272V62.7593C19.6129 62.7593 20.2483 62.7479 20.8859 62.7615C22.007 62.7864 22.7152 63.436 22.7259 64.4273C22.7387 65.4481 22.0049 66.1248 20.8453 66.1474C20.212 66.1588 19.5765 66.1474 18.9026 66.1474V67.5575H25.5223V67.5665ZM63.2894 67.562C63.2894 63.1033 63.2852 58.7509 63.2959 54.3985C63.2959 53.878 63.0413 53.801 62.6369 53.8033C61.4088 53.8169 60.1807 53.8463 58.9547 53.792C58.2936 53.7626 58.1503 54.0228 58.1545 54.6724C58.1781 58.7441 58.1652 62.8181 58.1695 66.8898C58.1695 67.1071 58.2016 67.3244 58.2209 67.562H63.2894ZM61.8239 50.3721C61.7105 49.7836 61.764 48.9937 61.473 48.8059C61.0814 48.5524 60.3027 48.5705 59.9197 48.8398C59.6394 49.0367 59.7293 49.8244 59.6501 50.3721H61.8239Z"/>
</mask>
<path d="M82.9989 7.82165V64.1784C82.9561 64.2802 82.8919 64.3753 82.8705 64.4816C82.0468 68.533 79.2183 70.9728 75.3008 70.9977C73.8866 71.0068 72.4723 70.9977 71.056 70.9977C50.3174 70.9977 29.5789 71 8.83816 70.9977C4.26596 70.9977 1.00744 67.6661 1.00317 62.9471C0.994607 44.9786 0.994607 27.0146 1.02028 9.05063C1.02028 8.13399 1.17005 7.18113 1.44177 6.31202C2.48587 2.97135 5.27369 1 8.84244 1C30.9417 1 53.0432 1 75.1425 1C75.3564 1 75.5704 1 75.7822 1.00905C78.7326 1.16975 80.8872 2.66354 82.2158 5.43611C82.571 6.17848 82.7421 7.02044 82.9967 7.81712L82.9989 7.82165ZM15.6398 67.562C15.6398 64.1919 15.6398 60.9124 15.6398 57.6328C15.6398 55.0594 15.6226 52.4838 15.6462 49.9104C15.6697 47.3958 17.161 45.8409 19.5145 45.8341C21.2496 45.8296 22.9848 45.8319 24.7178 45.8341C27.2874 45.8364 28.723 47.3574 28.7252 50.0914C28.7295 55.58 28.7252 61.0663 28.7252 66.5548C28.7252 66.883 28.7252 67.2112 28.7252 67.5575H33.5199C33.5199 67.2067 33.5199 66.9034 33.5199 66.6001C33.5199 63.7144 33.5156 60.8286 33.5242 57.9452C33.5242 57.5242 33.552 57.0964 33.6162 56.6822C33.8365 55.2496 34.6795 54.2673 35.8028 53.4955C34.4313 50.0009 33.0813 46.5607 31.7312 43.1227C30.4967 39.9789 30.9268 37.9125 33.2332 35.5632C36.1087 32.6344 38.8152 29.5586 40.5996 25.7087C40.8799 25.1044 41.3592 24.7807 42.0139 24.7807C42.7006 24.7807 43.1564 25.1315 43.4859 25.7539C44.0357 26.786 44.4979 27.9064 45.2061 28.8004C47.1402 31.2425 49.1364 33.6371 51.1989 35.9593C52.8956 37.8695 53.4197 40.1374 52.4912 42.5795C52.0141 43.8356 51.5134 45.085 51.0256 46.3366C50.0949 48.7335 49.1663 51.1303 48.2249 53.5498C49.9708 54.6498 50.5314 56.2929 50.4907 58.3164C50.4329 61.0867 50.4757 63.8592 50.4757 66.6318V67.5371H54.9624C54.9624 67.1614 54.9624 66.8536 54.9624 66.5435C54.9624 62.4695 54.9196 58.3956 54.9966 54.3239C55.0137 53.4774 55.279 52.4634 55.7797 51.841C56.3873 51.085 56.5178 50.3653 56.49 49.4758C56.4365 47.6901 57.1746 46.3932 58.6723 45.5535C58.8863 45.4335 59.0938 45.0714 59.1045 44.8134C59.1516 43.684 59.1152 42.5523 59.128 41.4207C59.1409 40.2981 59.7571 39.5783 60.6899 39.5602C61.6506 39.5421 62.3074 40.2845 62.3245 41.441C62.3416 42.5433 62.3502 43.6478 62.3181 44.75C62.3053 45.2095 62.4358 45.4471 62.8423 45.6418C63.8714 46.1352 64.5753 46.9952 64.8107 48.1631C64.9583 48.8987 64.8834 49.6818 64.9519 50.44C64.9775 50.7229 65.0524 51.0783 65.2321 51.2525C66.1714 52.1624 66.5052 53.2827 66.4988 54.5977C66.4774 58.6151 66.4923 62.6302 66.4923 66.6476C66.4923 66.9487 66.4923 67.2474 66.4923 67.6073C69.4513 67.6073 72.3012 67.6118 75.1532 67.6073C78.0608 67.6028 79.7938 65.7763 79.7938 62.7117C79.796 50.0394 79.7938 37.3671 79.7938 24.6925C79.7938 24.3937 79.7938 24.0972 79.7938 23.8007H4.20392C4.20392 24.1447 4.20392 24.448 4.20392 24.7513C4.20392 37.3671 4.20392 49.9828 4.20392 62.6008C4.20392 62.8837 4.1975 63.1667 4.21675 63.4496C4.35154 65.4956 5.88987 67.424 7.78337 67.5281C10.3594 67.6707 12.9461 67.5643 15.6398 67.5643V67.562ZM4.21461 20.2948H79.7832C79.7832 16.3272 79.7832 12.423 79.781 8.52102C79.781 8.38069 79.7532 8.24037 79.7275 8.1023C79.2953 5.76882 77.6094 4.39498 75.1489 4.39498C53.0475 4.39498 30.9482 4.39498 8.84672 4.39498C8.63276 4.39498 8.41881 4.39498 8.20699 4.4063C6.11666 4.50815 4.28094 6.3007 4.23601 8.52328C4.15899 12.423 4.21461 16.3272 4.21461 20.2971V20.2948ZM40.3985 52.9478C40.3985 50.2069 40.3921 47.4954 40.4028 44.7862C40.4071 43.6206 41.0532 42.8986 42.031 42.9167C42.9724 42.9326 43.5886 43.641 43.5971 44.7681C43.61 46.8028 43.6014 48.8398 43.6014 50.8746C43.6014 51.5739 43.6014 52.2755 43.6014 53.0949C44.2005 52.8957 44.8338 53.4095 45.174 52.52C46.6139 48.7538 48.0902 45.0012 49.545 41.2419C49.9665 40.1532 49.7526 39.2026 48.9481 38.3901C48.272 37.7065 47.5724 37.0457 46.9562 36.3056C45.2681 34.2776 43.6207 32.2135 41.9368 30.1403C41.9283 30.1516 41.832 30.2421 41.7614 30.353C39.8957 33.2704 37.6449 35.8303 35.2315 38.2407C34.1724 39.2977 34.0098 40.0876 34.564 41.5021C35.944 45.0216 37.3625 48.523 38.6869 52.0651C39.0292 52.9794 39.4806 53.2442 40.4006 52.9523L40.3985 52.9478ZM47.2771 67.5779V66.745C47.2771 63.8343 47.2771 60.926 47.2771 58.0153C47.2771 56.7501 47.0033 56.4469 45.8308 56.4446C43.2719 56.4378 40.713 56.4378 38.1541 56.4446C37.0138 56.4469 36.7249 56.7547 36.7228 57.9452C36.7185 60.9124 36.7206 63.8773 36.7228 66.8446C36.7228 67.0867 36.7527 67.3266 36.7698 67.5801H47.275L47.2771 67.5779ZM25.5223 67.5665C25.5223 66.5684 25.5223 65.6676 25.5223 64.7646C25.5223 59.9029 25.5223 55.0391 25.5223 50.1775C25.5223 49.6773 25.5629 49.2065 24.8569 49.2155C23.0704 49.2404 21.2817 49.2042 19.4973 49.2495C19.277 49.254 18.909 49.5731 18.879 49.7859C18.7956 50.4128 18.8491 51.0601 18.8491 51.755C19.6065 51.755 20.244 51.7459 20.8816 51.755C21.992 51.7731 22.7109 52.4272 22.7238 53.4163C22.7387 54.437 21.9963 55.1251 20.8474 55.1432C20.212 55.1522 19.5765 55.1432 18.9111 55.1432V57.2368C19.6728 57.2368 20.3639 57.2119 21.0549 57.2435C22.037 57.2865 22.7152 57.9927 22.7238 58.9297C22.7323 59.8962 22.0241 60.6 20.9972 60.6249C20.3125 60.6408 19.6257 60.6272 18.909 60.6272V62.7593C19.6129 62.7593 20.2483 62.7479 20.8859 62.7615C22.007 62.7864 22.7152 63.436 22.7259 64.4273C22.7387 65.4481 22.0049 66.1248 20.8453 66.1474C20.212 66.1588 19.5765 66.1474 18.9026 66.1474V67.5575H25.5223V67.5665ZM63.2894 67.562C63.2894 63.1033 63.2852 58.7509 63.2959 54.3985C63.2959 53.878 63.0413 53.801 62.6369 53.8033C61.4088 53.8169 60.1807 53.8463 58.9547 53.792C58.2936 53.7626 58.1503 54.0228 58.1545 54.6724C58.1781 58.7441 58.1652 62.8181 58.1695 66.8898C58.1695 67.1071 58.2016 67.3244 58.2209 67.562H63.2894ZM61.8239 50.3721C61.7105 49.7836 61.764 48.9937 61.473 48.8059C61.0814 48.5524 60.3027 48.5705 59.9197 48.8398C59.6394 49.0367 59.7293 49.8244 59.6501 50.3721H61.8239Z" fill="#FD6F00"/>
<path d="M82.9989 7.82165V64.1784C82.9561 64.2802 82.8919 64.3753 82.8705 64.4816C82.0468 68.533 79.2183 70.9728 75.3008 70.9977C73.8866 71.0068 72.4723 70.9977 71.056 70.9977C50.3174 70.9977 29.5789 71 8.83816 70.9977C4.26596 70.9977 1.00744 67.6661 1.00317 62.9471C0.994607 44.9786 0.994607 27.0146 1.02028 9.05063C1.02028 8.13399 1.17005 7.18113 1.44177 6.31202C2.48587 2.97135 5.27369 1 8.84244 1C30.9417 1 53.0432 1 75.1425 1C75.3564 1 75.5704 1 75.7822 1.00905C78.7326 1.16975 80.8872 2.66354 82.2158 5.43611C82.571 6.17848 82.7421 7.02044 82.9967 7.81712L82.9989 7.82165ZM15.6398 67.562C15.6398 64.1919 15.6398 60.9124 15.6398 57.6328C15.6398 55.0594 15.6226 52.4838 15.6462 49.9104C15.6697 47.3958 17.161 45.8409 19.5145 45.8341C21.2496 45.8296 22.9848 45.8319 24.7178 45.8341C27.2874 45.8364 28.723 47.3574 28.7252 50.0914C28.7295 55.58 28.7252 61.0663 28.7252 66.5548C28.7252 66.883 28.7252 67.2112 28.7252 67.5575H33.5199C33.5199 67.2067 33.5199 66.9034 33.5199 66.6001C33.5199 63.7144 33.5156 60.8286 33.5242 57.9452C33.5242 57.5242 33.552 57.0964 33.6162 56.6822C33.8365 55.2496 34.6795 54.2673 35.8028 53.4955C34.4313 50.0009 33.0813 46.5607 31.7312 43.1227C30.4967 39.9789 30.9268 37.9125 33.2332 35.5632C36.1087 32.6344 38.8152 29.5586 40.5996 25.7087C40.8799 25.1044 41.3592 24.7807 42.0139 24.7807C42.7006 24.7807 43.1564 25.1315 43.4859 25.7539C44.0357 26.786 44.4979 27.9064 45.2061 28.8004C47.1402 31.2425 49.1364 33.6371 51.1989 35.9593C52.8956 37.8695 53.4197 40.1374 52.4912 42.5795C52.0141 43.8356 51.5134 45.085 51.0256 46.3366C50.0949 48.7335 49.1663 51.1303 48.2249 53.5498C49.9708 54.6498 50.5314 56.2929 50.4907 58.3164C50.4329 61.0867 50.4757 63.8592 50.4757 66.6318V67.5371H54.9624C54.9624 67.1614 54.9624 66.8536 54.9624 66.5435C54.9624 62.4695 54.9196 58.3956 54.9966 54.3239C55.0137 53.4774 55.279 52.4634 55.7797 51.841C56.3873 51.085 56.5178 50.3653 56.49 49.4758C56.4365 47.6901 57.1746 46.3932 58.6723 45.5535C58.8863 45.4335 59.0938 45.0714 59.1045 44.8134C59.1516 43.684 59.1152 42.5523 59.128 41.4207C59.1409 40.2981 59.7571 39.5783 60.6899 39.5602C61.6506 39.5421 62.3074 40.2845 62.3245 41.441C62.3416 42.5433 62.3502 43.6478 62.3181 44.75C62.3053 45.2095 62.4358 45.4471 62.8423 45.6418C63.8714 46.1352 64.5753 46.9952 64.8107 48.1631C64.9583 48.8987 64.8834 49.6818 64.9519 50.44C64.9775 50.7229 65.0524 51.0783 65.2321 51.2525C66.1714 52.1624 66.5052 53.2827 66.4988 54.5977C66.4774 58.6151 66.4923 62.6302 66.4923 66.6476C66.4923 66.9487 66.4923 67.2474 66.4923 67.6073C69.4513 67.6073 72.3012 67.6118 75.1532 67.6073C78.0608 67.6028 79.7938 65.7763 79.7938 62.7117C79.796 50.0394 79.7938 37.3671 79.7938 24.6925C79.7938 24.3937 79.7938 24.0972 79.7938 23.8007H4.20392C4.20392 24.1447 4.20392 24.448 4.20392 24.7513C4.20392 37.3671 4.20392 49.9828 4.20392 62.6008C4.20392 62.8837 4.1975 63.1667 4.21675 63.4496C4.35154 65.4956 5.88987 67.424 7.78337 67.5281C10.3594 67.6707 12.9461 67.5643 15.6398 67.5643V67.562ZM4.21461 20.2948H79.7832C79.7832 16.3272 79.7832 12.423 79.781 8.52102C79.781 8.38069 79.7532 8.24037 79.7275 8.1023C79.2953 5.76882 77.6094 4.39498 75.1489 4.39498C53.0475 4.39498 30.9482 4.39498 8.84672 4.39498C8.63276 4.39498 8.41881 4.39498 8.20699 4.4063C6.11666 4.50815 4.28094 6.3007 4.23601 8.52328C4.15899 12.423 4.21461 16.3272 4.21461 20.2971V20.2948ZM40.3985 52.9478C40.3985 50.2069 40.3921 47.4954 40.4028 44.7862C40.4071 43.6206 41.0532 42.8986 42.031 42.9167C42.9724 42.9326 43.5886 43.641 43.5971 44.7681C43.61 46.8028 43.6014 48.8398 43.6014 50.8746C43.6014 51.5739 43.6014 52.2755 43.6014 53.0949C44.2005 52.8957 44.8338 53.4095 45.174 52.52C46.6139 48.7538 48.0902 45.0012 49.545 41.2419C49.9665 40.1532 49.7526 39.2026 48.9481 38.3901C48.272 37.7065 47.5724 37.0457 46.9562 36.3056C45.2681 34.2776 43.6207 32.2135 41.9368 30.1403C41.9283 30.1516 41.832 30.2421 41.7614 30.353C39.8957 33.2704 37.6449 35.8303 35.2315 38.2407C34.1724 39.2977 34.0098 40.0876 34.564 41.5021C35.944 45.0216 37.3625 48.523 38.6869 52.0651C39.0292 52.9794 39.4806 53.2442 40.4006 52.9523L40.3985 52.9478ZM47.2771 67.5779V66.745C47.2771 63.8343 47.2771 60.926 47.2771 58.0153C47.2771 56.7501 47.0033 56.4469 45.8308 56.4446C43.2719 56.4378 40.713 56.4378 38.1541 56.4446C37.0138 56.4469 36.7249 56.7547 36.7228 57.9452C36.7185 60.9124 36.7206 63.8773 36.7228 66.8446C36.7228 67.0867 36.7527 67.3266 36.7698 67.5801H47.275L47.2771 67.5779ZM25.5223 67.5665C25.5223 66.5684 25.5223 65.6676 25.5223 64.7646C25.5223 59.9029 25.5223 55.0391 25.5223 50.1775C25.5223 49.6773 25.5629 49.2065 24.8569 49.2155C23.0704 49.2404 21.2817 49.2042 19.4973 49.2495C19.277 49.254 18.909 49.5731 18.879 49.7859C18.7956 50.4128 18.8491 51.0601 18.8491 51.755C19.6065 51.755 20.244 51.7459 20.8816 51.755C21.992 51.7731 22.7109 52.4272 22.7238 53.4163C22.7387 54.437 21.9963 55.1251 20.8474 55.1432C20.212 55.1522 19.5765 55.1432 18.9111 55.1432V57.2368C19.6728 57.2368 20.3639 57.2119 21.0549 57.2435C22.037 57.2865 22.7152 57.9927 22.7238 58.9297C22.7323 59.8962 22.0241 60.6 20.9972 60.6249C20.3125 60.6408 19.6257 60.6272 18.909 60.6272V62.7593C19.6129 62.7593 20.2483 62.7479 20.8859 62.7615C22.007 62.7864 22.7152 63.436 22.7259 64.4273C22.7387 65.4481 22.0049 66.1248 20.8453 66.1474C20.212 66.1588 19.5765 66.1474 18.9026 66.1474V67.5575H25.5223V67.5665ZM63.2894 67.562C63.2894 63.1033 63.2852 58.7509 63.2959 54.3985C63.2959 53.878 63.0413 53.801 62.6369 53.8033C61.4088 53.8169 60.1807 53.8463 58.9547 53.792C58.2936 53.7626 58.1503 54.0228 58.1545 54.6724C58.1781 58.7441 58.1652 62.8181 58.1695 66.8898C58.1695 67.1071 58.2016 67.3244 58.2209 67.562H63.2894ZM61.8239 50.3721C61.7105 49.7836 61.764 48.9937 61.473 48.8059C61.0814 48.5524 60.3027 48.5705 59.9197 48.8398C59.6394 49.0367 59.7293 49.8244 59.6501 50.3721H61.8239Z" stroke="#FD6F00" mask="url(#path-1-outside-1_10_1109)"/>
<path d="M25.4279 7.76954C28.1045 7.76501 30.2782 10.051 30.2847 12.8779C30.2911 15.6866 28.1023 18.0065 25.4407 18.0111C22.7813 18.0156 20.5883 15.7025 20.584 12.8914C20.5797 10.0691 22.7513 7.77406 25.4279 7.76954ZM25.4514 11.169C24.555 11.16 23.8147 11.9092 23.7933 12.8462C23.7698 13.8013 24.5464 14.6251 25.4579 14.6116C26.3372 14.598 27.0775 13.8058 27.0775 12.8801C27.0775 11.9454 26.3436 11.1758 25.4514 11.1668V11.169Z" fill="black"/>
<path d="M17.2062 12.9099C17.1955 15.7504 15.041 18.0182 12.358 18.0092C9.68782 18.0001 7.54828 15.7028 7.5547 12.8578C7.56326 10.0174 9.72206 7.75406 12.4072 7.76764C15.0966 7.78122 17.2169 10.0513 17.2062 12.9099ZM10.7597 12.8646C10.7512 13.8288 11.4615 14.6006 12.3622 14.6119C13.2737 14.6232 13.9883 13.8763 13.999 12.9054C14.0097 11.9276 13.3208 11.1807 12.4008 11.1717C11.4808 11.1626 10.7683 11.8959 10.7619 12.8669L10.7597 12.8646Z" fill="black"/>
<path d="M38.4722 7.76761C41.1616 7.75855 43.3054 10.0173 43.3097 12.8669C43.3161 15.7141 41.1766 18.0001 38.5 18.0069C35.8256 18.0137 33.6625 15.7322 33.6582 12.8986C33.6539 10.049 35.7849 7.7744 38.4722 7.76761ZM40.1025 12.9031C40.1111 11.9253 39.4221 11.1784 38.5021 11.1694C37.5821 11.1603 36.8718 11.8959 36.8632 12.8646C36.8568 13.8288 37.565 14.6006 38.4679 14.6096C39.3793 14.6187 40.0939 13.8718 40.1025 12.9008V12.9031Z" fill="black"/>
<path d="M41.9618 40.7162C41.1102 40.6913 40.3978 39.9037 40.4063 38.9961C40.4149 38.041 41.1637 37.2986 42.0794 37.3416C42.9502 37.3824 43.6306 38.1587 43.5964 39.0776C43.5643 39.9784 42.8048 40.7389 41.9618 40.714V40.7162Z" fill="#FD6F00"/>
</svg>
