<svg width="72" height="82" viewBox="0 0 72 82" fill="none" xmlns="http://www.w3.org/2000/svg">
<path d="M48.3183 82H23.6784C22.6716 81.3978 22.3446 80.7871 22.5733 79.9479C22.7849 79.1791 23.4262 78.8011 24.5356 78.799C25.5915 78.799 26.6475 78.799 27.7377 78.799C28.287 75.8094 28.8214 72.9138 29.3751 69.8986C28.939 69.8986 28.6269 69.8986 28.3148 69.8986C21.9983 69.8986 15.6817 69.9029 9.3652 69.8922C8.62133 69.8922 7.86249 69.873 7.13999 69.7235C2.83063 68.8416 0.00902994 65.3267 0.00475478 60.8444C-0.0059331 49.7467 -0.00165795 38.6489 0.00261721 27.5511C0.00261721 22.0247 3.76261 18.2664 9.28611 18.2578C10.0236 18.2578 10.7589 18.2578 11.5498 18.2578C11.5498 17.8371 11.5498 17.5211 11.5498 17.2051C11.5498 13.1499 11.5391 9.09474 11.5541 5.03958C11.5626 2.60307 12.8901 0.834948 15.1623 0.158021C15.2842 0.121719 15.3974 0.0533854 15.515 0C29.1699 0 42.8226 0 56.4774 0C59.6795 1.3026 60.4447 2.46 60.4447 6.00052C60.4447 9.78875 60.4447 13.577 60.4447 17.3652C60.4447 17.6449 60.4447 17.9268 60.4447 18.2578C61.3318 18.2578 62.0992 18.2557 62.8687 18.2578C68.1913 18.2813 71.9855 22.0674 71.9898 27.391C71.9983 38.5144 71.9962 49.6399 71.9834 60.7633C71.9834 61.5299 71.9193 62.3157 71.744 63.061C70.7692 67.2251 67.3213 69.8794 62.8709 69.8901C56.4753 69.9071 50.0775 69.8943 43.6819 69.8943C43.3698 69.8943 43.0577 69.8943 42.6195 69.8943C43.1795 72.9309 43.7182 75.8479 44.2611 78.7947C45.5159 78.7947 46.6873 78.7712 47.8565 78.8011C48.8997 78.8268 49.5452 79.5848 49.4597 80.5778C49.3977 81.3188 48.8826 81.6733 48.3161 81.9936L48.3183 82ZM14.7989 11.5099V58.3011H57.1849V11.5099H14.7989ZM68.7257 61.6559H3.21326C3.31372 62.0872 3.3693 62.4268 3.4719 62.7556C4.23716 65.2199 6.33839 66.6912 9.13648 66.6933C27.0494 66.6976 44.9623 66.6955 62.8752 66.6933C63.1146 66.6933 63.354 66.6848 63.5934 66.6656C66.3209 66.4648 68.3965 64.464 68.7257 61.6559ZM11.4878 58.3246V29.8489H3.24532V58.3246H11.4878ZM68.7407 58.3182V29.8424H60.4896V58.3182H68.7407ZM14.7733 8.17865H57.1849C57.2149 8.04839 57.2362 7.995 57.2362 7.94375C57.2405 7.08958 57.2469 6.23755 57.2448 5.38339C57.2426 3.71562 56.7211 3.20313 55.0303 3.20313C42.3459 3.20313 29.6615 3.20313 16.9771 3.20313C16.7634 3.20313 16.5496 3.19458 16.338 3.20953C15.4851 3.27146 14.8417 3.80104 14.7904 4.65307C14.722 5.81474 14.7733 6.98495 14.7733 8.17865ZM40.9971 78.7627C40.4712 75.9055 39.9668 73.1295 39.4302 70.3598C39.396 70.1805 39.1053 69.9221 38.9322 69.9199C36.8566 69.8901 34.781 69.9007 32.6391 69.9007C32.0898 72.8711 31.549 75.7923 30.9975 78.7648H40.9992L40.9971 78.7627ZM11.49 26.5603V21.5165C6.56712 21.0552 3.29449 23.0817 3.31586 26.5603H11.49ZM60.4811 26.5539H68.7065C68.5825 24.2348 66.8553 22.1037 64.551 21.6638C63.2385 21.414 61.8684 21.4716 60.4832 21.3883V26.5539H60.4811Z" fill="#FD6F00"/>
<path d="M16.7693 38.5015C16.7693 34.314 16.7672 30.1264 16.7693 25.9389C16.7715 23.2632 18.2549 21.7748 20.9141 21.7706C23.2056 21.7663 25.4971 21.762 27.7885 21.7706C30.1484 21.7812 31.7345 23.2867 31.7409 25.6527C31.7666 34.2414 31.7666 42.83 31.7409 51.4187C31.7345 53.7869 30.1655 55.2881 27.7949 55.303C25.4244 55.318 23.0517 55.3222 20.6811 55.303C18.3169 55.2838 16.78 53.7484 16.7736 51.3845C16.7586 47.0902 16.7693 42.7959 16.7693 38.5015ZM28.5559 38.6019C28.5559 34.4165 28.5495 30.2289 28.5623 26.0435C28.5645 25.3517 28.4319 24.9438 27.5962 24.9587C25.3602 24.9993 23.1201 24.9908 20.8842 24.963C20.1788 24.9545 19.9586 25.2385 19.9607 25.9154C19.9736 34.3418 19.9757 42.7681 19.9607 51.1923C19.9607 51.9034 20.245 52.1212 20.9141 52.1148C23.0709 52.0913 25.2299 52.1084 27.3867 52.1063C28.4875 52.1063 28.5538 52.038 28.5559 50.9233C28.5581 46.8169 28.5559 42.7105 28.5559 38.604V38.6019Z" fill="black"/>
<path d="M44.788 21.7704C46.9191 21.7704 49.0524 21.7619 51.1836 21.7725C53.4922 21.7853 55.0612 23.3015 55.0911 25.6141C55.1274 28.3069 55.1253 31.0018 55.0911 33.6967C55.0633 35.9773 53.5606 37.5255 51.2712 37.549C46.9277 37.596 42.5841 37.5981 38.2406 37.549C35.8914 37.5234 34.4058 35.9111 34.3993 33.5451C34.3929 30.957 34.3929 28.371 34.3993 25.7828C34.4058 23.3399 35.9555 21.7811 38.3902 21.7704C40.5214 21.7619 42.6547 21.7704 44.7858 21.7704H44.788ZM37.5993 29.3404C38.3026 28.766 38.8583 28.2813 39.4462 27.8371C40.8847 26.7459 42.6846 26.763 44.0997 27.8756C44.602 28.2706 45.1193 28.6593 45.5618 29.1162C46.1411 29.7141 46.6135 29.6394 47.1821 29.0991C48.4304 27.9076 49.8733 27.6876 51.4593 28.356C51.5748 28.4051 51.6988 28.4308 51.8997 28.4927C51.8997 27.504 51.904 26.573 51.8997 25.644C51.8954 25.1294 51.594 24.9671 51.1173 24.9693C46.8828 24.9757 42.6483 24.9757 38.4137 24.9693C37.8366 24.9693 37.5929 25.2191 37.6014 25.7893C37.6164 26.9082 37.6057 28.0272 37.6057 29.3404H37.5993ZM44.7174 34.363C46.793 34.363 48.8707 34.3822 50.9463 34.3437C51.2541 34.3373 51.8014 34.0853 51.8163 33.9102C51.8676 33.3038 52.2331 32.5906 51.5042 32.0951C50.4369 31.3705 49.5704 31.278 48.9049 31.8175C47.2718 33.1479 45.4335 33.1479 43.8111 31.8154C43.3579 31.4438 42.8941 31.083 42.4772 30.673C41.9856 30.1903 41.5709 30.169 41.0408 30.6452C40.1109 31.4801 39.1127 32.2403 38.1764 33.071C37.9328 33.2867 37.8109 33.6433 37.6335 33.9337C37.9712 34.0768 38.3068 34.3395 38.6488 34.3459C40.671 34.3843 42.6953 34.3651 44.7174 34.3651V34.363Z" fill="black"/>
<path d="M44.7453 55.3068C42.6398 55.3068 40.5343 55.3154 38.4309 55.3047C35.9321 55.2919 34.4059 53.7523 34.3995 51.2538C34.3952 48.6678 34.3909 46.0797 34.3995 43.4937C34.408 41.1405 35.9449 39.5517 38.2813 39.5411C42.5971 39.5176 46.915 39.5176 51.2307 39.5411C53.5094 39.5539 55.0549 41.0743 55.0869 43.3485C55.1254 46.069 55.1254 48.7895 55.0869 51.5101C55.0527 53.7821 53.5009 55.2833 51.2179 55.3047C49.059 55.3261 46.9022 55.309 44.7432 55.3111L44.7453 55.3068ZM49.7558 52.1058C50.1876 52.1058 50.5061 52.1058 50.8246 52.1058C51.8207 52.0973 51.8998 52.0226 51.8998 50.9933C51.9041 48.5653 51.8849 46.1352 51.9105 43.7073C51.9191 42.9876 51.6583 42.7186 50.9272 42.7228C46.8209 42.7463 42.7146 42.7463 38.6105 42.7228C37.8495 42.7186 37.5716 42.9833 37.5845 43.75C37.6187 45.9644 37.5973 48.1788 37.5973 50.3954C37.5973 52.2062 37.6208 52.2276 39.4335 52.0952C39.5083 52.0888 39.581 52.0525 39.7349 52.0055C39.7969 50.3185 39.5083 48.5354 40.8571 47.1154C42.223 45.6761 43.9608 45.7743 45.6987 45.8192C46.7205 45.8448 47.614 46.2057 48.392 46.8805C49.9952 48.2749 49.758 50.1754 49.7558 52.1058ZM46.5516 52.076C46.5516 51.3179 46.573 50.6303 46.5452 49.9448C46.5195 49.3383 46.1348 48.9625 45.5598 49.0373C44.6898 49.1526 43.482 48.4543 43.0481 49.7185C42.8087 50.4167 43.0054 51.2666 43.0054 52.076H46.5537H46.5516Z" fill="black"/>
<path d="M39.1188 18.8278C34.4546 18.8278 29.7905 18.832 25.1263 18.8256C23.9014 18.8256 23.2153 18.2662 23.1789 17.2924C23.149 16.4575 23.6855 15.7912 24.5128 15.6716C24.827 15.6268 25.1498 15.6289 25.4704 15.6289C34.5872 15.6289 43.7018 15.6289 52.8186 15.6289C53.1371 15.6289 53.462 15.6289 53.7741 15.6759C54.5372 15.7933 55.0566 16.3955 55.0844 17.1579C55.1143 17.9651 54.6184 18.6206 53.8275 18.7658C53.4898 18.8278 53.1392 18.8256 52.7929 18.8256C48.2356 18.8299 43.6761 18.8278 39.1188 18.8256V18.8278Z" fill="#FD6F00"/>
<path d="M16.7773 17.2238C16.7773 16.3355 17.4528 15.6522 18.3378 15.6436C19.2142 15.6351 19.9324 16.3206 19.9581 17.1833C19.9837 18.0673 19.2334 18.8211 18.3378 18.8105C17.4635 18.7998 16.7773 18.1036 16.7773 17.2217V17.2238Z" fill="#FD6F00"/>
<path d="M53.0555 4.15106C53.4274 4.15106 53.8036 4.1233 54.1735 4.15747C54.9665 4.22794 55.5543 4.8408 55.6163 5.6181C55.674 6.35268 55.2144 7.12784 54.462 7.21966C53.4958 7.33497 52.4955 7.34138 51.5293 7.22606C50.732 7.12997 50.3044 6.3719 50.3771 5.5583C50.4455 4.78101 51.0312 4.21086 51.8563 4.1532C52.2539 4.12544 52.6558 4.14893 53.0555 4.14893V4.1532V4.15106Z" fill="#FD6F00"/>
<path d="M24.2088 35.0699C23.5974 35.0699 22.9861 35.0955 22.3769 35.0635C21.4769 35.0144 20.8122 34.314 20.8164 33.4662C20.8207 32.6184 21.4855 31.9095 22.3897 31.8839C23.6359 31.8497 24.8864 31.8476 26.1326 31.8839C27.0496 31.9116 27.6845 32.6056 27.6802 33.4769C27.6759 34.346 27.0368 35.0165 26.1198 35.0614C25.4849 35.0934 24.8458 35.0678 24.2088 35.0678V35.0699Z" fill="black"/>
<path d="M24.3138 42.6037C24.8718 42.6037 25.4297 42.5909 25.9876 42.6059C27.0136 42.6358 27.6912 43.2913 27.6805 44.2224C27.6698 45.1193 27.0051 45.777 26.026 45.7962C24.8311 45.8197 23.6362 45.8218 22.4413 45.7962C21.4922 45.7727 20.8018 45.0595 20.8146 44.184C20.8275 43.3063 21.52 42.6507 22.4819 42.6059C22.5354 42.6037 22.5888 42.6059 22.6423 42.6059C23.2002 42.6059 23.7581 42.6059 24.316 42.6059L24.3138 42.6037Z" fill="black"/>
<path d="M24.3051 26.5263C24.9186 26.5263 25.532 26.4985 26.1434 26.5327C27.0454 26.5839 27.6568 27.216 27.6803 28.0595C27.7038 28.9073 27.1352 29.6205 26.2374 29.6675C24.9357 29.7337 23.6253 29.7337 22.3235 29.676C21.3915 29.6354 20.7738 28.8902 20.8165 28.0381C20.8572 27.2032 21.4835 26.5989 22.3855 26.5263C22.439 26.522 22.4924 26.5199 22.5458 26.5199C23.1315 26.5199 23.7194 26.5199 24.3051 26.5199C24.3051 26.522 24.3051 26.5241 24.3051 26.5263Z" fill="black"/>
<path d="M24.2092 40.4276C23.5957 40.4276 22.9801 40.4661 22.3709 40.4191C21.4261 40.3443 20.7998 39.6717 20.8147 38.8154C20.8275 37.9548 21.4774 37.2886 22.4179 37.2629C23.6427 37.2288 24.8718 37.2288 26.0967 37.2629C27.0415 37.2886 27.6742 37.9505 27.6827 38.8239C27.6913 39.6717 27.112 40.2974 26.2078 40.4191C26.1287 40.4298 26.0496 40.4426 25.9684 40.4426C25.3827 40.4426 24.7949 40.4426 24.2092 40.4426C24.2092 40.4383 24.2092 40.4319 24.2092 40.4276Z" fill="black"/>
<path d="M24.2848 47.9853C24.8983 47.9853 25.5117 47.9597 26.1231 47.9917C27.0294 48.0408 27.6472 48.6579 27.6793 49.4993C27.7156 50.377 27.1235 51.0923 26.1787 51.1372C24.9025 51.197 23.62 51.197 22.3439 51.1393C21.4055 51.0966 20.7856 50.3727 20.8155 49.5185C20.8454 48.6579 21.4931 48.0301 22.4443 47.9896C23.0557 47.9618 23.6713 47.9853 24.2826 47.9874L24.2848 47.9853Z" fill="black"/>
</svg>
